<svg width="369" height="150" viewBox="0 0 369 150" fill="none" xmlns="http://www.w3.org/2000/svg">
<path fill-rule="evenodd" clip-rule="evenodd" d="M73.3711 3.8738C73.3711 2.38265 71.7558 1.4516 70.4655 2.19899L17.4772 32.8913C16.1845 33.64 16.1914 35.5089 17.4896 36.2481L70.4779 66.4172C71.7682 67.1518 73.3711 66.22 73.3711 64.7352V3.8738Z" fill="#01A67D"/>
<path fill-rule="evenodd" clip-rule="evenodd" d="M118.132 3.00314C117.392 1.70679 115.525 1.7013 114.777 2.99328L84.1213 55.9414C83.3743 57.2317 84.3053 58.8466 85.7963 58.8466H146.693C148.179 58.8466 149.111 57.2415 148.374 55.9512L118.132 3.00314Z" fill="#01A67D"/>
<path fill-rule="evenodd" clip-rule="evenodd" d="M94.6099 70.4105C93.3196 69.6596 91.7009 70.5904 91.7009 72.0834V133.446C91.7009 134.941 93.3243 135.872 94.6146 135.116L147.167 104.337C148.445 103.588 148.443 101.739 147.162 100.994L94.6099 70.4105Z" fill="#01A67D"/>
<path fill-rule="evenodd" clip-rule="evenodd" d="M1.71641 79.6011C0.966929 78.3108 1.89786 76.6935 3.39005 76.6935H82.1605C83.6552 76.6935 84.5858 78.3158 83.8312 79.606L44.3124 147.182C43.5638 148.462 41.7128 148.459 40.968 147.177L1.71641 79.6011Z" fill="#01A67D"/>
<path fill-rule="evenodd" clip-rule="evenodd" d="M297.311 98.7183C298.758 98.9943 299.624 100.488 299.145 101.881L298.002 105.208C293.993 116.49 284.856 122.177 270.406 122.177C263.88 122.177 258.473 121.152 254.37 119.101C248.311 116.117 244.209 110.803 242.064 103.251C240.945 99.5211 240.479 89.8245 240.573 74.2541C240.666 59.8958 241.039 51.318 241.598 48.521C244.115 34.722 253.625 27.8226 269.94 27.8226C285.789 27.8226 295.391 34.0694 298.561 46.4698L299.504 50.1319C299.852 51.4824 298.989 52.8466 297.62 53.1109L286.39 55.2782C285.154 55.5167 283.942 54.7681 283.602 53.5565L282.712 50.3857C282.246 48.4277 281.407 47.0292 280.195 46.1901C278.237 44.7915 274.788 44.1389 269.94 44.1389C264.999 44.1389 261.642 44.8848 259.871 46.3765C258.752 47.3089 258.006 49.0804 257.447 51.5978C256.981 54.1151 256.701 61.9469 256.701 75.1865C256.701 88.6124 256.981 96.5375 257.54 98.7752C258.193 101.199 259.125 102.784 260.244 103.623C262.202 105.115 265.465 105.861 270.313 105.861C274.788 105.861 277.957 105.302 279.822 104.09C280.941 103.344 281.78 102.038 282.526 100.08L283.227 98.1156C283.628 96.9927 284.788 96.3293 285.959 96.5528L297.311 98.7183ZM186.034 115.931C181.652 112.481 178.389 108.285 176.524 103.157L175.137 99.5515C174.629 98.2302 175.359 96.7569 176.718 96.3605L187.761 93.1394C188.951 92.7922 190.211 93.401 190.679 94.5492L191.907 97.5631C194.145 103.064 198.34 105.861 204.679 105.861C206.264 105.861 207.942 105.675 209.621 105.208C213.35 104.276 215.96 101.945 217.359 98.309C218.384 95.6984 218.664 93.181 218.291 90.7569C217.359 85.4424 212.138 80.9671 202.722 77.2376C196.662 74.8135 192.093 72.4826 189.017 70.0585C183.516 65.8628 180.347 60.5484 179.694 54.2083C179.041 48.3345 180.626 42.9268 184.262 38.0785C187.712 33.6032 192 30.6196 197.128 29.3143C199.925 28.5684 202.722 28.1955 205.425 28.1955C210.553 28.1955 215.121 29.4076 219.13 31.9249C223.232 34.3491 226.122 37.7056 227.987 41.9944L229.532 45.5815C230.101 46.9025 229.399 48.4253 228.024 48.8501L217.207 52.1937C216.062 52.5477 214.83 52.0098 214.312 50.9292L212.977 48.148C211.765 45.6306 209.248 44.4186 205.425 44.4186C204.12 44.4186 202.815 44.605 201.416 44.8847C200.018 45.2577 198.806 46.1901 197.594 47.5886C196.382 49.1736 195.823 50.7586 196.009 52.4369C196.289 54.3016 197.408 56.0731 199.552 57.5648C201.416 58.8701 204.493 60.3619 208.782 62.0402C223.978 68.0073 232.555 76.6782 234.326 88.1462C235.445 95.1389 234.326 101.665 230.784 107.912C226.961 114.719 221.181 119.101 213.443 121.059C210.46 121.804 207.476 122.177 204.586 122.177C197.501 122.177 191.348 120.126 186.034 115.931ZM304.643 35.5612C305.389 51.318 313.314 78.4497 328.417 117.049L329.303 119.32C329.668 120.255 330.571 120.867 331.574 120.86L341.335 120.79C342.318 120.783 343.199 120.182 343.564 119.27L344.452 117.049C359.369 78.3565 367.2 51.2248 367.946 35.5612L368.113 31.8419C368.174 30.4647 367.074 29.3144 365.696 29.3144H354.307C353.017 29.3144 351.954 30.3265 351.891 31.6149L351.724 35.0017C351.273 45.1164 346.535 63.1911 337.427 89.226C337.127 90.0844 335.918 90.0881 335.613 89.2315C326.329 63.1937 321.5 45.1171 320.958 35.0017L320.792 31.6149C320.729 30.3265 319.665 29.3144 318.375 29.3144H306.894C305.515 29.3144 304.415 30.4647 304.477 31.8419L304.643 35.5612Z" fill="#fafafa"/>
</svg>
